<svg width="15" height="14" viewBox="0 0 15 14" fill="none" xmlns="http://www.w3.org/2000/svg">
<path d="M2.93329 0H11.6845C13.1398 0 14.3073 1.1708 14.3073 2.62603V11.3773C14.3073 12.8325 13.1365 14 11.6845 14H2.93329C2.58847 14.0009 2.24686 13.9336 1.92808 13.8022C1.6093 13.6707 1.31961 13.4776 1.07563 13.234C0.831648 12.9903 0.638181 12.7008 0.506324 12.3822C0.374467 12.0636 0.306817 11.7221 0.307253 11.3773V2.62603C0.307253 1.1708 1.47805 0 2.93329 0Z" fill="white"/>
<path d="M12.0053 10.1337C11.5588 10.1264 11.1197 10.2494 10.7419 10.4876C10.6295 10.567 10.6493 10.6761 10.775 10.6629C11.1884 10.6133 12.1079 10.5008 12.2732 10.7125C12.4386 10.9242 12.0913 11.7907 11.9359 12.1777C11.8896 12.2934 11.9888 12.343 12.0946 12.2537C12.7859 11.6749 12.9612 10.4678 12.8223 10.2925C12.7528 10.2065 12.4154 10.1271 12.0053 10.1337ZM1.43175 10.2197C1.34907 10.2329 1.30938 10.3619 1.39868 10.4611C2.90683 12.1743 4.89454 13.2062 7.10385 13.2062C8.67815 13.2062 10.5104 12.5778 11.7672 11.4037C11.9789 11.2119 11.8003 10.9176 11.5886 11.0333C10.1731 11.7907 8.63515 12.1578 7.23284 12.1578C5.1787 12.141 3.18265 11.4741 1.53097 10.2528C1.50299 10.2301 1.46773 10.2184 1.43175 10.2197Z" fill="#FFA700"/>
<path d="M7.23284 0.849988C5.685 0.849988 3.95856 1.42877 3.59475 3.34042C3.55507 3.54548 3.7039 3.65131 3.8395 3.68108L5.41379 3.85306C5.56263 3.84314 5.66846 3.69761 5.69823 3.55209C5.83052 2.89062 6.38615 2.57642 7.00463 2.57642C7.34198 2.57642 7.72232 2.6988 7.92076 2.99646C8.14897 3.33381 8.1159 3.79022 8.1159 4.17718V4.39216C7.1733 4.49468 5.93966 4.56745 5.0566 4.95441C4.52934 5.16562 4.08003 5.53427 3.7699 6.01011C3.45977 6.48596 3.30391 7.04586 3.32355 7.61351C3.32355 9.30357 4.38852 10.1502 5.75776 10.1502C6.91533 10.1502 7.54703 9.87574 8.44002 8.96622C8.73768 9.39617 8.83359 9.60123 9.37269 10.051C9.49506 10.1172 9.65051 10.1106 9.75965 10.0113V10.018C10.0871 9.72691 10.6758 9.21427 11.0098 8.93645C11.1421 8.82731 11.119 8.65202 11.0131 8.50319C10.7155 8.09308 10.4013 7.75904 10.4013 6.99504V4.46492C10.4013 3.39003 10.474 2.40113 9.68358 1.6636C9.05849 1.06497 8.0266 0.853295 7.23614 0.853295L7.23284 0.849988ZM8.1192 5.69194V6.04583C8.1192 6.68084 8.13243 7.20671 7.81493 7.77226C7.55365 8.22868 7.14354 8.5098 6.68712 8.5098C6.06203 8.5098 5.69492 8.03355 5.69492 7.32908C5.69492 5.9433 6.94179 5.69194 8.1192 5.69194Z" fill="black"/>
</svg>
