<svg width="15" height="14" viewBox="0 0 15 14" fill="none" xmlns="http://www.w3.org/2000/svg">
<path d="M2.93329 0H11.6845C13.1398 0 14.3073 1.1708 14.3073 2.62603V11.3773C14.3073 12.8325 13.1365 14 11.6845 14H2.93329C2.58847 14.0009 2.24686 13.9336 1.92808 13.8022C1.6093 13.6707 1.31961 13.4776 1.07563 13.234C0.831648 12.9903 0.638181 12.7008 0.506324 12.3822C0.374467 12.0636 0.306817 11.7221 0.307253 11.3773V2.62603C0.307253 1.1708 1.47805 0 2.93329 0Z" fill="white"/>
<path d="M12.0913 2.73187H13.4341V11.2781H12.0913V2.73187Z" fill="#E50012"/>
<path d="M1.1837 11.0465L2.92667 2.67895L4.23969 2.95346L2.49671 11.321L1.1837 11.0465Z" fill="#009FE8"/>
<path d="M4.24299 2.73187H5.58578V11.2781H4.24299V2.73187Z" fill="#530000"/>
<path d="M6.8558 2.73187H8.20189V11.2781H6.8558V2.73187Z" fill="#B4B4B5"/>
<path d="M9.47522 2.73187H10.8147V11.2781H9.47522V2.73187Z" fill="#009844"/>
</svg>
