<svg width="15" height="14" viewBox="0 0 15 14" fill="none" xmlns="http://www.w3.org/2000/svg">
<path d="M2.93225 0H11.6823C13.1365 0 14.3073 1.17075 14.3073 2.625V11.375C14.3073 12.8292 13.1365 14 11.6823 14H2.93225C1.478 14 0.307251 12.8292 0.307251 11.375V2.625C0.307251 1.17075 1.478 0 2.93225 0Z" fill="#0099CC"/>
<path d="M5.55288 7.79187C5.50388 7.97096 5.43446 8.13954 5.34463 8.29762C5.25538 8.45104 5.13696 8.58521 4.98938 8.70012C4.84179 8.81562 4.65833 8.90517 4.439 8.96875C4.22433 9.03292 3.96708 9.065 3.66725 9.065C3.16617 9.065 2.79283 8.94337 2.54725 8.70012C2.30575 8.45687 2.185 8.13487 2.185 7.73412C2.185 7.48679 2.22292 7.23538 2.29875 6.97988C2.37458 6.72321 2.49533 6.49075 2.661 6.2825C2.82667 6.07308 3.03667 5.90246 3.291 5.77062C3.5465 5.63412 3.85304 5.56588 4.21063 5.56588C4.52388 5.56588 4.78113 5.60846 4.98238 5.69362C5.18829 5.77879 5.34929 5.88758 5.46538 6.02C5.58204 6.14833 5.65817 6.28892 5.69375 6.44175C5.73458 6.59108 5.748 6.73196 5.734 6.86437H4.5195C4.53292 6.72379 4.5195 6.60421 4.47925 6.50562C4.44367 6.40354 4.34538 6.3525 4.18438 6.3525C4.05896 6.3525 3.94929 6.40383 3.85538 6.5065C3.76613 6.60858 3.69029 6.734 3.62788 6.88275C3.56954 7.02858 3.52463 7.18462 3.49313 7.35087C3.46629 7.51712 3.45288 7.66412 3.45288 7.79187C3.45288 8.12437 3.57129 8.29063 3.80813 8.29063C3.93354 8.29063 4.0365 8.25008 4.117 8.169C4.1975 8.08383 4.26896 7.95812 4.33138 7.79187H5.55288ZM10.1799 4.5535L9.39938 8.1235C9.36088 8.31017 9.32471 8.47992 9.29088 8.63275C9.26113 8.78558 9.23546 8.92412 9.21388 9.04837H8.06238C8.06238 8.99471 8.06442 8.94512 8.0685 8.89962C8.07725 8.85412 8.086 8.80046 8.09475 8.73863C7.89 8.99063 7.58929 9.11662 7.19263 9.11662C6.84263 9.11662 6.574 9.00696 6.38675 8.78763C6.19892 8.56421 6.105 8.25796 6.105 7.86888C6.105 7.60813 6.1435 7.34942 6.2205 7.09275C6.29692 6.83608 6.40979 6.60625 6.55913 6.40325C6.70846 6.20083 6.89192 6.0375 7.1095 5.91325C7.33117 5.78492 7.58492 5.72075 7.87075 5.72075C8.07958 5.72075 8.25458 5.74992 8.39575 5.80825C8.54042 5.866 8.63375 5.93017 8.67575 6.00075L8.996 4.5535H10.1799ZM8.08863 6.54675C7.96438 6.54675 7.85529 6.59225 7.76138 6.68325C7.66804 6.77017 7.58929 6.87779 7.52513 7.00612C7.46096 7.13037 7.41196 7.26483 7.37813 7.4095C7.34371 7.55008 7.3265 7.67637 7.3265 7.78837C7.3265 7.95404 7.35654 8.08033 7.41663 8.16725C7.47613 8.25417 7.57413 8.29762 7.71063 8.29762C7.81271 8.29762 7.90225 8.27487 7.97925 8.22937C8.05625 8.17921 8.1245 8.11067 8.184 8.02375C8.2435 7.93683 8.2925 7.83358 8.331 7.714C8.37358 7.59383 8.40975 7.45908 8.4395 7.30975C8.49083 7.05775 8.49083 6.86758 8.4395 6.73925C8.39283 6.61092 8.27646 6.54675 8.08863 6.54675ZM10.8711 4.83L11.0855 3.8255H12.4514L12.2379 4.83H10.8711ZM12.1338 5.31037L11.3139 9.15075C11.2605 9.41675 11.1958 9.64512 11.1223 9.83762C11.0488 10.0301 10.9525 10.1876 10.8335 10.3101C10.7163 10.4326 10.5684 10.5245 10.3908 10.5831C10.1853 10.6473 9.9707 10.6774 9.7555 10.6724C9.67238 10.6724 9.57613 10.6671 9.46763 10.6575C9.30838 10.6418 9.08175 10.5875 8.99775 10.577L9.241 9.60313C9.26638 9.6075 9.47025 9.63813 9.49038 9.63813H9.53413C9.67238 9.63813 9.76775 9.60575 9.82288 9.54187C9.88109 9.46109 9.91892 9.36743 9.93313 9.26888L10.7749 5.3095L12.1338 5.31037Z" fill="white"/>
</svg>
