<svg width="16" height="16" viewBox="0 0 16 16" fill="none" xmlns="http://www.w3.org/2000/svg">
<path d="M12.4444 14.2222C12.4444 15.204 11.6484 16 10.6667 16H1.77778C0.796 16 0 15.1667 0 12.4444V1.77778C0 0.796 0.796 0 1.77778 0H10.6667C11.6484 0 12.4444 0.796 12.4444 1.77778V14.2222Z" fill="#CCD6DD"/>
<path d="M13.7778 16H1.77778C3.55556 16 3.55556 12.4444 3.55556 12.4444C3.55556 11.4627 4.35156 10.6667 5.33333 10.6667H14.2222C15.204 10.6667 16 11.5556 16 12.4444C16 12.4444 16.1111 16 13.7778 16Z" fill="#E1E8ED"/>
<path d="M10.6667 3.11111C10.6667 3.35644 10.468 3.55556 10.2222 3.55556H2.22222C1.97689 3.55556 1.77778 3.35644 1.77778 3.11111C1.77778 2.86578 1.97689 2.66667 2.22222 2.66667H10.2222C10.468 2.66667 10.6667 2.86578 10.6667 3.11111ZM10.6667 4.88889C10.6667 5.13422 10.468 5.33333 10.2222 5.33333H2.22222C1.97689 5.33333 1.77778 5.13422 1.77778 4.88889C1.77778 4.64356 1.97689 4.44444 2.22222 4.44444H10.2222C10.468 4.44444 10.6667 4.64356 10.6667 4.88889ZM10.6667 6.66667C10.6667 6.912 10.468 7.11111 10.2222 7.11111H2.22222C1.97689 7.11111 1.77778 6.912 1.77778 6.66667C1.77778 6.42133 1.97689 6.22222 2.22222 6.22222H10.2222C10.468 6.22222 10.6667 6.42133 10.6667 6.66667ZM10.6667 8.44444C10.6667 8.69022 10.468 8.88889 10.2222 8.88889H2.22222C1.97689 8.88889 1.77778 8.69022 1.77778 8.44444C1.77778 8.19867 1.97689 8 2.22222 8H10.2222C10.468 8 10.6667 8.19867 10.6667 8.44444Z" fill="#99AAB5"/>
</svg>
