<svg width="15" height="14" viewBox="0 0 15 14" fill="none" xmlns="http://www.w3.org/2000/svg">
<path d="M2.93329 0H11.6845C13.1398 0 14.3073 1.1708 14.3073 2.62603V11.3773C14.3073 12.8325 13.1365 14 11.6845 14H2.93329C2.58847 14.0009 2.24686 13.9336 1.92808 13.8022C1.6093 13.6707 1.31961 13.4776 1.07563 13.234C0.831648 12.9903 0.638181 12.7008 0.506324 12.3822C0.374467 12.0636 0.306817 11.7221 0.307253 11.3773V2.62603C0.307253 1.1708 1.47805 0 2.93329 0Z" fill="white"/>
<path d="M11.9425 6.99835C11.9425 6.99835 12.6635 6.5717 12.6635 5.55634C12.6635 4.54099 11.9425 4.11765 11.9425 4.11765L6.9484 1.23695L1.95431 4.11434L6.9484 6.99835C6.9484 6.99835 7.66941 7.42499 7.66941 8.44035C7.66941 9.45571 6.9484 9.87905 6.9484 9.87905C6.9484 9.87905 7.66941 10.309 7.66941 11.321C7.66941 12.3331 6.9484 12.7631 6.9484 12.7631L11.9425 9.87905C11.9425 9.87905 12.6635 9.4524 12.6635 8.44035C12.6635 7.4283 11.9425 6.99835 11.9425 6.99835Z" fill="#E95E5B"/>
<path d="M13.024 5.55634C13.024 4.35247 12.1641 3.8266 12.131 3.80345H12.1244L7.13031 0.926057C7.075 0.894126 7.01227 0.877316 6.9484 0.877316C6.88454 0.877316 6.82181 0.894126 6.7665 0.926057L1.82863 3.77038C1.74264 3.81999 1.59381 3.90598 1.59381 4.11434C1.59353 4.17692 1.60955 4.23849 1.64028 4.293C1.67102 4.34751 1.71541 4.39308 1.7691 4.42523C1.94494 4.5554 2.0865 4.72638 2.18156 4.92343C2.27663 5.12048 2.32236 5.33769 2.31481 5.55634C2.32435 5.77576 2.27953 5.99413 2.18432 6.19204C2.08912 6.38995 1.94648 6.56127 1.7691 6.69076C1.71506 6.72196 1.67013 6.76678 1.63879 6.82074C1.60746 6.87471 1.59081 6.93594 1.5905 6.99835C1.59089 7.06118 1.60754 7.12284 1.63884 7.17732C1.67014 7.2318 1.71502 7.27725 1.7691 7.30924C1.94494 7.43941 2.0865 7.61039 2.18156 7.80744C2.27663 8.00449 2.32236 8.2217 2.31481 8.44035C2.32435 8.65976 2.27953 8.87813 2.18432 9.07604C2.08912 9.27396 1.94648 9.44528 1.7691 9.57477C1.71506 9.60597 1.67013 9.65079 1.63879 9.70475C1.60746 9.75872 1.59081 9.81995 1.5905 9.88235C1.59032 9.94613 1.60706 10.0088 1.63901 10.064C1.67097 10.1192 1.717 10.165 1.77241 10.1966L6.7665 13.0772C6.82169 13.1095 6.88447 13.1265 6.9484 13.1265C7.01233 13.1265 7.07511 13.1095 7.13031 13.0772L12.1244 10.1966C12.4097 10.0036 12.6417 9.74184 12.7989 9.43544C12.9562 9.12904 13.0336 8.78792 13.024 8.44366C13.0339 7.91258 12.8425 7.39743 12.4882 7.00165C12.8435 6.60521 13.035 6.08861 13.024 5.55634ZM2.99612 5.133L6.7665 7.30924C6.79957 7.33239 7.30891 7.66974 7.30891 8.44035C7.3133 8.62596 7.28044 8.81056 7.21227 8.98325C7.14411 9.15595 7.04201 9.31322 6.91202 9.44578L2.55625 6.9322C2.87465 6.54521 3.04468 6.0574 3.03581 5.55634C3.0353 5.41432 3.02202 5.27264 2.99612 5.133ZM2.99612 8.0137L6.7665 10.1899C6.80288 10.2164 7.30891 10.5537 7.30891 11.321C7.31375 11.5072 7.2811 11.6924 7.21292 11.8657C7.14474 12.039 7.04242 12.1968 6.91202 12.3298L2.55625 9.81621C2.87465 9.42922 3.04468 8.94141 3.03581 8.44035C3.03558 8.29832 3.02229 8.1533 2.99612 8.0137ZM11.7573 9.56815L7.99022 11.7444C8.01612 11.6048 8.0294 11.4631 8.02991 11.321C8.03799 10.8211 7.868 10.3346 7.55034 9.9485L11.9094 7.43492C12.0394 7.5673 12.1413 7.72463 12.209 7.89741C12.2766 8.0702 12.3086 8.25488 12.303 8.44035C12.3124 8.65892 12.2678 8.87644 12.1732 9.0737C12.0786 9.27097 11.9369 9.44192 11.7606 9.57146L11.7573 9.56815ZM11.7573 6.69076L7.99022 8.86369C8.01612 8.72405 8.0294 8.58237 8.02991 8.44035C8.03981 8.09604 7.96253 7.75481 7.80526 7.44835C7.64798 7.1419 7.41581 6.88016 7.13031 6.68746L2.67531 4.11765L6.9484 1.64706L11.7606 4.42192C11.8003 4.44838 12.303 4.78573 12.303 5.55304C12.3123 5.77207 12.2678 5.99006 12.1732 6.18785C12.0786 6.38564 11.9369 6.55719 11.7606 6.68746L11.7573 6.69076Z" fill="#231815"/>
</svg>
