<svg width="16" height="14" viewBox="0 0 16 14" fill="none" xmlns="http://www.w3.org/2000/svg">
<path d="M3.83252 0.758908C5.95595 -0.349894 8.64568 -0.22873 10.6807 1.02438C11.0426 1.25514 11.3901 1.50936 11.7147 1.79026C13.4579 3.34772 14.2906 5.8263 13.93 8.12521C13.8265 8.75225 13.6443 9.36547 13.3859 9.94622C14.0001 10.5572 14.6242 11.1592 15.2198 11.7878C15.4386 12.0333 15.2159 12.437 14.8942 12.409C13.8831 12.3647 12.8797 12.2152 11.8718 12.1269C11.7654 12.1163 11.6957 12.2175 11.6157 12.2718C10.2382 13.5236 8.32269 14.1198 6.47661 13.98C5.42694 13.8868 4.38435 13.5927 3.47352 13.0547C2.79956 12.6495 2.1812 12.1452 1.67694 11.54C0.282742 9.89094 -0.337223 7.57242 0.182146 5.46184C0.618275 3.45667 1.9919 1.67166 3.83252 0.758908ZM4.51483 0.863682C4.03532 1.06616 3.57315 1.31395 3.14956 1.61702C1.59338 2.73033 0.56396 4.54394 0.406799 6.45108C0.204322 8.71754 1.28356 11.0441 3.13188 12.3673C4.97764 13.7367 7.55777 13.989 9.65711 13.0766C10.0781 12.8976 10.4715 12.6604 10.8495 12.4036C11.148 12.1899 11.3958 11.9054 11.724 11.7338C12.7916 11.8113 13.8535 11.9781 14.9241 12.0285C14.2604 11.352 13.5848 10.6874 12.9144 10.0172C14.3671 7.29088 13.5379 3.58652 11.0526 1.74847C9.23512 0.322779 6.6463 -0.0153253 4.51483 0.863682Z" fill="black"/>
<path d="M6.0183 2.23795C6.40333 1.51418 7.73132 1.58456 7.93894 2.41633C8.0074 3.57687 7.94505 4.74224 7.96819 5.90472C9.05546 5.92496 10.1443 5.89218 11.2319 5.91821C11.4508 5.91629 11.6787 5.97799 11.8342 6.13933C12.1881 6.5054 12.2237 7.11508 11.9743 7.54767C11.8284 7.80896 11.5257 7.95552 11.2303 7.93334C10.1456 8.00405 9.04518 7.9192 7.96787 7.97159C7.94987 9.0399 7.98137 10.1092 7.95341 11.1778C7.97687 11.4889 7.78018 11.7862 7.5041 11.9196C7.10429 12.1185 6.58138 12.095 6.22592 11.8132C6.02441 11.6557 5.93378 11.3973 5.93731 11.1473C5.91321 10.0847 5.93539 9.0219 5.92831 7.95905C4.97539 7.94202 4.02214 7.98123 3.06953 7.9478C2.77578 7.91663 2.44282 7.97705 2.19438 7.77811C1.81675 7.47761 1.74861 6.91485 1.90706 6.48161C2.01087 6.17693 2.29209 5.9285 2.6228 5.92336C3.72421 5.89443 4.82626 5.92368 5.92767 5.90793C5.93249 4.93283 5.91996 3.95772 5.92799 2.9823C5.93506 2.73354 5.90035 2.46807 6.0183 2.23795Z" fill="black"/>
<path d="M4.51483 0.863682C6.6463 -0.0153253 9.23512 0.322779 11.0526 1.74847C13.5379 3.58652 14.3671 7.29088 12.9144 10.0172C13.5848 10.6874 14.2604 11.352 14.9241 12.0285C13.8535 11.9781 12.7916 11.8113 11.724 11.7338C11.3958 11.9054 11.148 12.1899 10.8495 12.4036C10.4715 12.6604 10.0781 12.8976 9.65711 13.0766C7.55777 13.989 4.97764 13.7367 3.13188 12.3673C1.28356 11.0441 0.204322 8.71754 0.406799 6.45108C0.56396 4.54394 1.59338 2.73033 3.14956 1.61702C3.57315 1.31395 4.03532 1.06616 4.51483 0.863682ZM6.0183 2.23795C5.90035 2.46807 5.93506 2.73354 5.92799 2.9823C5.91996 3.95772 5.93249 4.93283 5.92767 5.90793C4.82626 5.92368 3.72421 5.89443 2.6228 5.92336C2.29209 5.9285 2.01087 6.17693 1.90706 6.48161C1.74861 6.91485 1.81675 7.47761 2.19438 7.77811C2.44282 7.97705 2.77578 7.91663 3.06953 7.9478C4.02214 7.98123 4.97539 7.94202 5.92831 7.95905C5.93539 9.0219 5.91321 10.0847 5.93731 11.1473C5.93378 11.3973 6.02441 11.6557 6.22592 11.8132C6.58138 12.095 7.10429 12.1185 7.5041 11.9196C7.78018 11.7862 7.97687 11.4889 7.95341 11.1778C7.98137 10.1092 7.94987 9.0399 7.96787 7.97159C9.04518 7.9192 10.1456 8.00405 11.2303 7.93334C11.5257 7.95552 11.8284 7.80896 11.9743 7.54767C12.2237 7.11508 12.1881 6.5054 11.8342 6.13933C11.6787 5.97799 11.4508 5.91629 11.2319 5.91821C10.1443 5.89218 9.05546 5.92496 7.96819 5.90472C7.94505 4.74224 8.0074 3.57687 7.93894 2.41633C7.73132 1.58456 6.40333 1.51418 6.0183 2.23795Z" fill="white"/>
</svg>
